<svg id="visual" viewBox="0 0 900 600" width="900" height="600" xmlns="http://www.w3.org/2000/svg" xmlns:xlink="http://www.w3.org/1999/xlink" version="1.1"><rect x="0" y="0" width="900" height="600" fill="#ffffff"></rect><path d="M699 600L703.5 585.7C708 571.3 717 542.7 727.3 514.2C737.7 485.7 749.3 457.3 749.5 428.8C749.7 400.3 738.3 371.7 734.7 343C731 314.3 735 285.7 737.7 257C740.3 228.3 741.7 199.7 741 171.2C740.3 142.7 737.7 114.3 725.2 85.8C712.7 57.3 690.3 28.7 679.2 14.3L668 0L900 0L900 14.3C900 28.7 900 57.3 900 85.8C900 114.3 900 142.7 900 171.2C900 199.7 900 228.3 900 257C900 285.7 900 314.3 900 343C900 371.7 900 400.3 900 428.8C900 457.3 900 485.7 900 514.2C900 542.7 900 571.3 900 585.7L900 600Z" fill="#2aba77" stroke-linecap="round" stroke-linejoin="miter"></path></svg>